<?xml version="1.0" standalone="no"?>
<!DOCTYPE svg PUBLIC "-//W3C//DTD SVG 20010904//EN"
 "http://www.w3.org/TR/2001/REC-SVG-20010904/DTD/svg10.dtd">
<svg version="1.0" xmlns="http://www.w3.org/2000/svg"
 width="457.000000pt" height="815.000000pt" viewBox="0 0 457.000000 815.000000"
 preserveAspectRatio="xMidYMid meet">

<g transform="translate(0.000000,815.000000) scale(0.100000,-0.100000)"
fill="#000000" stroke="none">
<path d="M1540 7353 c0 -24 36 -159 104 -392 31 -106 54 -196 51 -200 -4 -3
-102 93 -219 213 -134 139 -217 217 -224 212 -20 -12 -14 -75 10 -109 70 -98
349 -438 425 -518 37 -38 49 -62 72 -140 16 -52 41 -128 56 -169 35 -100 44
-227 20 -290 -40 -107 -47 -142 -35 -198 28 -129 142 -180 246 -109 27 19 63
41 80 50 l31 16 23 -92 c44 -177 38 -296 -20 -376 -24 -32 -36 -39 -86 -49
-65 -14 -124 -15 -141 -4 -6 4 -53 88 -103 187 -111 216 -190 338 -303 465
-62 70 -100 104 -143 127 -97 51 -179 74 -289 80 -132 7 -220 -12 -351 -76
-83 -41 -112 -61 -157 -111 -67 -75 -109 -151 -139 -255 -21 -72 -23 -100 -23
-285 0 -319 43 -576 114 -691 69 -111 200 -199 392 -263 243 -81 771 -195
1144 -246 136 -18 126 -12 123 -78 l-3 -57 -120 -36 c-136 -42 -154 -58 -118
-107 16 -21 35 -30 94 -43 41 -9 87 -19 102 -23 l27 -6 0 -330 0 -329 -32 -5
c-18 -3 -67 -8 -108 -11 -41 -4 -122 -15 -180 -27 -309 -59 -547 -182 -682
-351 -37 -47 -38 -51 -38 -127 0 -104 22 -154 103 -234 73 -73 148 -114 289
-160 238 -78 429 -105 783 -113 484 -10 722 29 990 162 146 72 231 139 265
209 27 58 37 180 16 216 -8 14 -22 40 -32 58 -33 64 -168 166 -307 232 -132
63 -336 108 -609 135 l-68 7 0 176 c0 97 -5 273 -11 390 l-11 212 33 39 34 39
113 3 c101 4 123 1 199 -23 105 -32 133 -27 133 26 0 31 -4 35 -47 54 -75 31
-145 42 -277 42 l-124 0 -4 34 -4 33 96 23 c465 110 773 318 934 629 39 75 49
106 56 169 9 90 47 203 202 602 248 638 290 774 290 935 0 138 -32 233 -113
342 -50 66 -101 96 -219 127 -197 52 -269 60 -530 60 -489 1 -934 -91 -1165
-239 -74 -47 -150 -128 -182 -193 -31 -63 -39 -60 -89 41 -55 109 -98 222
-158 416 -68 220 -95 280 -134 304 -17 9 -35 17 -41 17 -6 0 -11 -8 -11 -17z
m84 -86 c13 -29 49 -135 80 -237 32 -102 79 -236 105 -297 27 -62 47 -113 46
-113 -2 0 -29 26 -61 58 -58 56 -60 59 -90 172 -18 63 -52 185 -76 270 -61
210 -61 211 -43 204 8 -3 25 -29 39 -57z m140 -601 l57 -49 -29 -13 c-16 -6
-36 -22 -44 -33 -15 -22 -16 -21 -73 41 -106 116 -405 496 -405 514 0 12 79
-59 218 -196 121 -118 245 -237 276 -264z m1866 318 c124 -18 274 -56 329 -83
49 -25 113 -98 146 -165 43 -89 58 -170 52 -276 -9 -149 -49 -273 -267 -835
-62 -159 -137 -357 -166 -440 -29 -82 -54 -145 -55 -140 -2 11 -8 405 -8 498
0 62 28 137 129 352 200 422 249 608 205 770 -9 36 -20 65 -24 65 -4 0 1 -33
12 -72 41 -160 6 -292 -191 -723 -58 -126 -117 -264 -132 -304 l-28 -75 -22
44 c-46 91 -154 182 -247 210 -94 28 -268 -38 -377 -144 -79 -76 -132 -159
-231 -356 -42 -85 -78 -156 -79 -157 -3 -3 -208 -32 -256 -36 -25 -2 17 -4 93
-5 75 -1 137 -4 137 -7 0 -10 -72 -148 -142 -275 -68 -121 -182 -283 -230
-326 -51 -46 -148 -58 -349 -44 -384 26 -658 65 -914 130 -249 63 -324 100
-397 194 -48 63 -65 67 -23 6 69 -99 170 -152 399 -210 403 -101 1094 -172
1221 -124 33 12 -66 -64 -112 -87 -47 -23 -63 -39 -38 -39 70 0 275 185 377
340 70 106 189 328 311 581 52 107 118 228 146 270 103 155 252 257 389 267
60 4 74 1 121 -23 101 -51 186 -157 215 -268 19 -74 24 -565 6 -642 -18 -81
-85 -181 -194 -291 -187 -189 -383 -290 -732 -377 -272 -69 -411 -71 -759 -12
-604 102 -1025 208 -1185 297 -112 62 -211 172 -240 264 -48 156 -87 515 -75
689 22 323 171 516 457 592 133 35 310 16 444 -48 135 -64 293 -268 464 -599
112 -218 113 -219 222 -201 113 19 131 30 168 105 72 145 38 326 -161 851 -37
99 -64 182 -58 183 22 8 103 -45 154 -101 42 -46 60 -75 71 -117 37 -131 45
-150 86 -185 54 -46 97 -54 159 -28 l48 21 27 -29 c35 -37 104 -63 144 -56 47
10 80 36 80 64 0 22 -3 24 -22 18 -56 -17 -73 -17 -104 0 -35 19 -45 38 -65
129 -25 114 -74 153 -235 187 -138 29 -186 65 -298 227 l-57 83 25 55 c36 79
131 170 233 222 312 161 962 247 1403 186z m-1782 -426 c16 -16 15 -53 -3 -68
-21 -17 -47 -9 -64 22 -13 22 -13 29 -2 42 16 19 52 21 69 4z m156 -148 c72
-106 70 -101 39 -85 -15 8 -46 17 -70 21 -23 3 -50 15 -59 25 -19 21 -44 25
-44 7 0 -6 7 -19 15 -28 12 -13 16 -47 18 -147 2 -128 3 -132 38 -201 l36 -70
-38 -5 c-21 -3 -52 -15 -68 -27 l-31 -21 21 48 c18 42 20 62 16 158 -4 97 -9
123 -46 224 -22 63 -41 119 -41 124 0 6 11 0 25 -13 27 -25 46 -20 29 8 -9 13
-7 19 10 27 12 6 27 25 35 43 l15 32 24 -22 c13 -13 47 -57 76 -98z m65 -438
c33 -89 61 -167 61 -174 0 -20 -16 4 -33 52 -11 28 -37 65 -71 97 -36 35 -59
68 -70 100 -22 62 -31 157 -21 219 l7 49 33 -90 c18 -49 60 -163 94 -253z
m209 213 c46 -7 53 -18 22 -35 -11 -6 -27 -25 -36 -43 l-17 -32 -13 46 c-8 25
-23 54 -34 64 -29 26 -25 38 8 21 15 -7 46 -17 70 -21z m196 -85 c39 -44 44
-71 22 -124 -40 -97 -163 -103 -202 -10 -18 43 -18 88 1 124 20 39 41 49 96
50 42 0 50 -4 83 -40z m113 -219 l38 -34 -34 19 c-49 27 -75 66 -65 95 7 23 8
22 15 -11 5 -22 22 -48 46 -69z m-553 -11 c41 -36 46 -59 30 -119 -30 -105
-127 -130 -199 -51 -41 45 -12 159 48 185 51 22 83 18 121 -15z m86 -131 c0
-5 -4 -9 -10 -9 -5 0 -10 7 -10 16 0 8 5 12 10 9 6 -3 10 -10 10 -16z m450
-1626 c0 9 5 17 11 17 9 0 4 -56 -5 -67 -2 -2 -31 -6 -65 -9 -36 -4 -60 -11
-58 -17 4 -12 61 -11 213 4 113 11 204 5 282 -17 50 -14 53 -17 48 -40 -4 -13
-2 -24 3 -24 5 0 11 9 14 21 6 23 27 17 27 -7 0 -26 -30 -27 -106 -3 -55 18
-74 28 -74 41 0 23 -16 23 -29 1 -8 -15 -35 -18 -213 -23 -127 -3 -202 -9
-201 -15 2 -5 40 -12 85 -15 l83 -5 -29 -20 -29 -19 7 -191 c4 -104 10 -294
12 -422 l5 -232 -41 -23 c-45 -26 -55 -45 -45 -88 9 -39 18 -44 54 -26 50 26
61 44 61 98 l0 51 93 -7 c104 -8 289 -38 381 -62 213 -55 426 -191 495 -317
45 -81 10 -184 -87 -262 -70 -56 -249 -145 -360 -179 -357 -111 -1010 -112
-1437 -2 -201 51 -319 104 -396 177 -58 56 -99 136 -99 195 0 70 67 151 200
241 163 110 441 195 715 218 l80 7 1 -57 c1 -44 7 -62 24 -81 52 -54 147 -79
205 -52 23 10 26 17 23 52 l-3 41 -56 -3 c-64 -4 -105 12 -138 54 -20 26 -21
38 -21 308 0 154 3 312 7 350 l6 68 36 -6 c20 -4 61 -10 92 -13 53 -5 56 -4
82 27 56 66 28 96 -103 109 -217 22 -242 23 -238 9 3 -9 44 -17 134 -25 71 -6
130 -12 131 -12 1 -1 -1 -17 -4 -36 -4 -24 -2 -35 6 -35 8 0 10 8 6 19 -5 16
16 51 30 51 39 0 47 -52 11 -75 -22 -15 -37 -13 -207 21 -101 20 -192 40 -201
46 -10 5 -18 17 -18 28 0 27 198 90 282 90 45 0 58 3 58 15 0 11 -12 15 -45
15 l-45 0 0 53 0 52 108 3 c59 1 132 6 162 10 44 6 57 4 67 -8 11 -13 12 -13
13 3z m-18 -1098 c-3 -21 -13 -41 -25 -50 -30 -21 -37 -19 -37 13 0 19 9 33
33 49 17 12 32 22 32 22 1 1 -1 -15 -3 -34z m-266 -45 c20 -7 51 -10 70 -7 31
5 34 3 34 -18 0 -18 -7 -26 -26 -31 -59 -15 -174 52 -174 101 0 23 0 23 30 -5
17 -16 47 -34 66 -40z m1247 -521 c-28 -49 -118 -114 -238 -173 -200 -99 -377
-139 -694 -158 -567 -34 -1146 76 -1330 252 -71 68 -88 108 -19 45 69 -64 149
-106 280 -149 238 -78 429 -105 783 -113 359 -7 557 11 770 72 127 36 337 142
405 204 30 28 56 50 58 51 2 0 -5 -14 -15 -31z"/>
<path d="M3856 6843 c-4 -4 14 -27 40 -50 26 -24 49 -41 52 -39 2 3 -15 23
-39 45 -28 26 -38 41 -28 41 9 0 24 -9 34 -20 10 -11 23 -20 28 -20 6 0 0 11
-13 25 -23 24 -59 33 -74 18z"/>
<path d="M3974 6049 c-140 -280 -286 -649 -257 -649 5 0 16 30 26 67 9 36 44
131 77 210 65 155 201 445 207 440 4 -5 -35 -102 -97 -237 -60 -131 -143 -350
-136 -358 6 -5 11 6 61 143 18 50 60 150 94 223 76 165 106 251 92 265 -6 6
-29 -29 -67 -104z"/>
<path d="M819 5933 c-136 -68 -233 -193 -265 -342 -15 -72 -19 -251 -6 -251 5
0 9 51 9 113 1 84 6 128 22 177 48 154 149 258 304 316 44 16 54 23 36 23 -15
1 -60 -16 -100 -36z"/>
<path d="M3164 5666 c-51 -22 -111 -83 -168 -170 -65 -98 -86 -140 -216 -427
-94 -208 -122 -263 -180 -361 -12 -21 -18 -38 -13 -38 16 0 107 173 189 356
170 381 256 528 352 601 27 20 55 33 73 33 18 0 28 4 24 10 -8 13 -23 12 -61
-4z"/>
<path d="M3140 5589 c-66 -50 -130 -110 -130 -122 0 -6 22 11 48 35 27 25 72
62 100 83 29 20 52 39 52 41 0 11 -20 0 -70 -37z"/>
<path d="M2376 5428 c-2 -7 -7 -26 -11 -42 -8 -38 -56 -85 -94 -92 -43 -9 -39
-20 15 -33 39 -10 48 -17 64 -54 11 -23 20 -50 20 -59 0 -10 7 -18 15 -18 9 0
15 9 15 22 0 42 38 104 76 121 40 19 38 32 -5 40 -31 7 -71 59 -71 95 0 24
-18 39 -24 20z m40 -169 c-14 -17 -26 -38 -26 -47 0 -11 -7 -6 -18 13 -11 17
-26 36 -35 44 -16 12 -14 17 15 50 l33 36 28 -32 29 -33 -26 -31z"/>
<path d="M556 5160 c4 -74 10 -139 14 -143 4 -4 5 52 2 125 -2 73 -8 137 -13
143 -6 5 -7 -45 -3 -125z"/>
<path d="M1945 5074 c-770 -131 -1162 -221 -1211 -275 -10 -12 -14 -20 -9 -17
6 2 35 16 66 31 74 36 275 85 599 147 218 41 768 136 885 153 19 2 11 4 -20 5
-27 0 -167 -19 -310 -44z"/>
<path d="M2471 4523 c-59 -78 -149 -163 -172 -163 -5 0 -9 -5 -9 -10 0 -14 35
4 88 47 52 42 185 214 165 213 -4 -1 -37 -40 -72 -87z"/>
<path d="M1277 6650 c-19 -44 -54 -77 -86 -82 -36 -5 -39 -28 -3 -28 41 0 80
-34 88 -76 8 -43 27 -39 35 7 7 47 15 57 50 66 37 10 36 25 -5 38 -21 7 -33
19 -40 40 -21 72 -23 73 -39 35z m32 -116 l-20 -22 -23 22 -22 21 20 25 21 26
22 -26 22 -25 -20 -21z"/>
<path d="M1450 2078 c-57 -29 -155 -128 -199 -201 -41 -69 -86 -199 -100 -287
-25 -151 -3 -365 44 -437 32 -49 81 -22 129 72 21 42 26 46 26 24 0 -75 65
-180 126 -205 39 -16 102 -18 138 -4 20 7 36 3 84 -22 81 -41 170 -49 234 -20
52 23 145 88 199 139 l37 35 12 -36 c25 -76 104 -136 180 -136 82 0 145 53
201 169 16 31 28 49 29 41 1 -30 58 -137 85 -158 35 -27 78 -28 120 -2 38 24
54 46 111 154 l42 79 12 -59 c41 -204 134 -226 232 -54 13 22 26 40 29 40 4 0
9 -13 12 -28 7 -35 48 -79 81 -88 37 -9 89 3 120 27 33 26 86 116 86 147 0 36
-19 26 -39 -21 -52 -121 -153 -163 -201 -84 -30 48 -26 74 13 90 39 17 57 37
91 101 45 85 27 158 -32 125 -38 -21 -88 -90 -107 -151 -10 -29 -24 -57 -32
-61 -7 -4 -24 -30 -38 -57 -32 -64 -82 -120 -106 -120 -27 0 -56 53 -75 137
l-16 72 36 36 c40 39 64 83 92 165 27 78 26 301 -2 379 -34 97 -74 95 -110 -5
-38 -105 -57 -245 -56 -411 0 -92 -4 -153 -9 -153 -6 0 -21 -26 -35 -57 -38
-85 -90 -158 -128 -178 -32 -18 -36 -18 -60 -2 -30 20 -67 88 -90 166 -9 30
-15 55 -13 56 1 1 19 10 39 20 72 33 104 158 95 375 -5 135 -25 213 -58 231
-26 14 -57 -5 -74 -44 -41 -98 -67 -383 -47 -517 8 -54 6 -75 -9 -125 -22 -70
-68 -147 -102 -170 -94 -61 -208 -15 -238 97 -15 55 -6 72 44 82 59 12 135 56
156 90 37 58 25 114 -28 136 -63 26 -133 -17 -180 -111 -17 -34 -31 -76 -31
-94 0 -22 -11 -45 -37 -75 -51 -59 -188 -158 -237 -171 -49 -13 -115 -4 -172
24 l-43 21 64 67 c98 104 166 229 185 342 13 73 3 132 -31 181 -58 85 -148
100 -261 43 l-65 -32 32 65 c42 83 55 131 55 203 0 143 -89 204 -210 145z
m129 -24 c30 -21 51 -73 51 -124 0 -80 -62 -223 -146 -332 -31 -41 -33 -49
-19 -54 11 -5 29 5 53 28 114 108 239 153 304 110 59 -39 73 -69 73 -163 0
-81 -2 -90 -42 -170 -48 -95 -126 -203 -172 -237 l-31 -23 -40 63 c-22 35 -55
100 -72 146 -49 127 -92 160 -145 110 l-23 -21 0 50 c0 122 -53 323 -92 347
-29 17 -30 1 -3 -55 41 -89 58 -185 54 -312 -4 -98 -8 -119 -32 -168 -15 -31
-36 -64 -46 -73 -19 -17 -20 -17 -35 11 -8 16 -22 67 -32 114 -56 278 81 645
278 743 60 30 85 32 117 10z m1497 -201 c23 -80 24 -260 2 -333 -19 -61 -76
-161 -95 -168 -19 -6 -17 218 2 338 20 126 49 220 66 220 5 0 16 -26 25 -57z
m-397 10 c45 -111 37 -384 -13 -481 -15 -30 -59 -52 -73 -38 -14 14 -5 303 11
390 19 96 39 156 54 156 5 0 15 -12 21 -27z m701 -426 c0 -42 -90 -170 -108
-152 -10 9 31 98 60 131 32 36 48 43 48 21z m-989 -21 c24 -52 -52 -121 -159
-142 l-32 -6 16 47 c9 26 33 64 54 86 30 32 44 39 74 39 29 0 39 -5 47 -24z
m-887 -124 c20 -50 54 -118 75 -153 l39 -64 -38 -9 c-50 -11 -82 -2 -124 35
-73 64 -99 217 -46 274 33 36 51 20 94 -83z"/>
<path d="M1121 903 c-19 -60 -24 -174 -9 -202 36 -66 86 -54 128 32 31 64 52
167 33 167 -11 0 -23 -32 -23 -65 0 -30 -55 -141 -74 -148 -45 -17 -62 96 -31
199 18 59 18 54 2 54 -8 0 -19 -17 -26 -37z"/>
<path d="M3451 914 c-17 -21 -31 -55 -58 -134 -3 -8 -12 12 -19 45 -14 59 -28
84 -39 73 -4 -3 1 -30 9 -59 8 -30 20 -85 26 -124 18 -115 32 -109 45 19 6 61
43 167 59 170 16 2 27 -54 29 -149 2 -104 20 -122 25 -25 4 69 -13 177 -30
198 -15 18 -24 15 -47 -14z"/>
<path d="M2953 863 c-12 -42 -8 -242 5 -288 26 -89 57 -95 110 -21 35 49 38
56 20 56 -7 0 -26 -19 -42 -41 -15 -22 -33 -38 -40 -36 -6 2 -17 27 -24 56
-11 46 -11 54 2 64 40 31 60 154 33 207 -18 37 -54 39 -64 3z m48 -112 c-18
-89 -31 -86 -31 6 0 105 8 130 28 83 12 -28 12 -45 3 -89z"/>
<path d="M1325 838 c-2 -7 -11 -49 -20 -93 -10 -44 -19 -90 -22 -102 -4 -16
-1 -23 9 -23 10 0 19 19 28 60 15 71 22 82 75 109 l40 21 3 -30 c2 -16 -6 -64
-18 -106 -20 -72 -21 -99 -1 -78 16 16 52 163 49 197 -2 26 -8 33 -30 35 -15
2 -40 -4 -57 -13 -31 -15 -31 -15 -31 10 0 26 -17 35 -25 13z"/>
<path d="M3263 828 c-16 -15 -25 -19 -35 -11 -7 6 -25 13 -40 17 -22 5 -31 1
-44 -19 -58 -88 -23 -255 53 -255 33 0 70 41 79 86 4 22 2 63 -4 94 -11 52
-11 55 13 78 14 12 25 25 25 27 0 13 -28 3 -47 -17z m-59 -24 c20 -8 11 -24
-15 -24 -10 0 -19 7 -19 15 0 16 9 19 34 9z m42 -61 c3 -16 8 -34 10 -42 8
-24 -16 -90 -38 -105 -43 -31 -78 21 -78 116 0 49 0 49 28 44 15 -3 34 -2 42
4 23 15 29 12 36 -17z"/>
<path d="M1547 834 c-9 -10 2 -24 19 -24 8 0 14 7 14 15 0 15 -21 21 -33 9z"/>
<path d="M1534 759 c-14 -17 -44 -135 -44 -172 0 -37 26 -46 53 -19 23 24 17
42 -8 22 -13 -11 -15 -8 -15 17 0 16 7 53 16 82 17 60 16 93 -2 70z"/>
<path d="M1645 736 c-21 -31 -11 -50 49 -100 50 -41 60 -78 27 -96 -43 -23
-98 -3 -113 41 -9 24 -21 1 -14 -25 7 -28 52 -56 90 -56 13 0 38 12 55 26 47
39 42 68 -25 130 -32 29 -54 57 -50 63 11 18 51 13 71 -9 10 -11 22 -17 27
-14 5 4 -3 19 -18 35 -35 37 -77 39 -99 5z"/>
<path d="M2483 745 c-12 -8 -27 -31 -33 -50 -16 -48 0 -71 68 -101 87 -37 102
-78 41 -109 -48 -25 -86 -19 -104 15 -13 26 -35 41 -35 25 0 -17 33 -66 51
-76 29 -15 83 -3 119 27 54 46 32 101 -57 140 -61 27 -73 46 -52 83 22 39 48
39 81 0 24 -30 27 -31 28 -13 0 25 -46 74 -69 74 -9 0 -26 -7 -38 -15z"/>
<path d="M2732 714 c-78 -32 -101 -238 -28 -252 24 -5 63 33 77 77 l12 36 10
-30 c11 -35 35 -65 52 -65 15 0 65 52 65 68 0 19 -13 14 -36 -15 -21 -26 -24
-27 -39 -12 -9 9 -21 44 -28 77 -13 67 -23 78 -33 35 -3 -16 -8 -37 -11 -48
-8 -30 -53 -105 -63 -105 -4 0 -14 16 -20 36 -10 29 -10 49 -1 89 15 68 48
100 91 91 22 -4 30 -2 28 6 -7 20 -43 26 -76 12z"/>
<path d="M1850 682 c-36 -36 -40 -44 -40 -91 0 -61 19 -95 61 -110 33 -11 71
-1 101 26 40 36 13 45 -32 11 -24 -18 -35 -20 -57 -12 -15 5 -33 20 -39 33
-11 22 -9 26 28 55 60 45 85 82 72 104 -20 32 -52 26 -94 -16z m70 -3 c0 -12
-69 -79 -81 -79 -15 0 13 60 34 75 25 18 47 19 47 4z"/>
<path d="M2010 696 c0 -7 7 -19 15 -26 8 -7 24 -27 36 -46 l20 -34 -40 -58
c-23 -32 -41 -61 -41 -65 0 -20 23 -2 57 43 20 28 40 50 44 50 3 0 18 -23 34
-51 18 -35 30 -48 37 -41 7 7 0 29 -21 67 l-32 57 28 53 c15 30 24 57 19 62
-8 8 -20 -5 -49 -58 l-18 -32 -36 47 c-36 47 -53 57 -53 32z"/>
</g>
</svg>
